<svg width="491" height="222" viewBox="0 0 491 222" fill="none" xmlns="http://www.w3.org/2000/svg">
<path d="M144.815 110.11H120.351C120.117 108.705 120 104.145 120 102.428C120 99.8526 120.897 97.8237 122.692 96.3411C124.487 94.7803 126.906 94 129.95 94H184.964C184.964 94 185 97.3165 185 99.0333C184.964 104 184.379 106.598 182.74 108.003C181.102 109.408 178.761 110.11 175.717 110.11H160.969V172.426H144.815V110.11Z" fill="#423D80"/>
<path d="M204.416 162.476C206.991 162.476 209.176 162.125 210.971 161.423C212.843 160.72 214.404 159.901 215.653 158.964C216.901 157.95 217.994 157.014 218.93 156.155C220.101 157.638 221.115 159.277 221.974 161.071C222.91 162.788 223.378 164.154 223.378 165.168C223.378 166.885 222.403 168.446 220.452 169.85C218.579 171.255 216.082 172.347 212.961 173.128C209.839 173.986 206.484 174.415 202.894 174.415C193.374 174.415 186.038 171.801 180.888 166.573C175.816 161.344 173.28 153.736 173.28 143.748C173.28 137.817 174.411 132.745 176.674 128.531C179.015 124.317 182.215 121.078 186.272 118.815C190.408 116.552 195.012 115.421 200.085 115.421C207.732 115.421 213.624 117.645 217.76 122.093C221.974 126.463 224.081 132.51 224.081 140.236C224.081 143.982 223.964 146.401 223.729 147.493H189.316C189.628 152.331 191.072 156.038 193.647 158.613C196.222 161.188 199.812 162.476 204.416 162.476ZM209.683 138.714C209.683 130.286 206.367 126.073 199.734 126.073C196.456 126.073 193.881 127.204 192.008 129.467C190.135 131.73 189.199 134.812 189.199 138.714H209.683Z" fill="#423D80"/>
<path d="M262.392 162.476C264.967 162.476 267.152 162.125 268.947 161.423C270.82 160.72 272.38 159.901 273.629 158.964C274.878 157.95 275.97 157.014 276.907 156.155C278.077 157.638 279.091 159.277 279.95 161.071C280.886 162.788 281.355 164.154 281.355 165.168C281.355 166.885 280.379 168.446 278.428 169.85C276.555 171.255 274.058 172.347 270.937 173.128C267.815 173.986 264.46 174.415 260.87 174.415C251.35 174.415 244.015 171.801 238.864 166.573C233.792 161.344 231.256 153.736 231.256 143.748C231.256 137.817 232.387 132.745 234.65 128.531C236.991 124.317 240.191 121.078 244.249 118.815C248.385 116.552 252.989 115.421 258.061 115.421C265.708 115.421 271.6 117.645 275.736 122.093C279.95 126.463 282.057 132.51 282.057 140.236C282.057 143.982 281.94 146.401 281.706 147.493H247.292C247.604 152.331 249.048 156.038 251.623 158.613C254.198 161.188 257.788 162.476 262.392 162.476ZM267.659 138.714C267.659 130.286 264.343 126.073 257.71 126.073C254.432 126.073 251.857 127.204 249.984 129.467C248.111 131.73 247.175 134.812 247.175 138.714H267.659Z" fill="#423D80"/>
<path d="M307.609 172.426H291.573V117.059L292.978 116.825C294.226 116.669 295.514 116.591 296.841 116.591C302.615 116.591 305.932 118.62 306.79 122.678C310.38 117.84 316.115 115.421 323.997 115.421C327.665 115.421 330.669 116.084 333.01 117.411C335.429 118.659 337.263 120.61 338.511 123.263C342.725 118.035 348.656 115.421 356.303 115.421C361.22 115.421 365.121 116.474 368.009 118.581C370.896 120.61 372.613 123.536 373.159 127.36C373.705 130.716 373.979 134.734 373.979 139.417V172.426H358.059V140.119C358.059 136.529 357.825 134.071 357.357 132.745C356.967 131.34 356.186 130.325 355.016 129.701C353.923 128.999 352.363 128.648 350.334 128.648C348.461 128.648 346.588 129.077 344.715 129.935C342.842 130.794 341.516 131.847 340.735 133.096C340.97 135.281 341.087 137.583 341.087 140.002V172.426H325.167V140.119C325.167 136.295 324.894 133.681 324.348 132.276C323.88 130.872 323.06 129.857 321.89 129.233C320.719 128.531 319.081 128.179 316.974 128.179C314.242 128.179 311.979 128.804 310.185 130.052C308.468 131.223 307.609 132.706 307.609 134.5V172.426Z" fill="#423D80"/>
<path d="M413.609 162.476C416.185 162.476 418.37 162.125 420.164 161.423C422.037 160.72 423.598 159.901 424.847 158.964C426.095 157.95 427.188 157.014 428.124 156.155C429.295 157.638 430.309 159.277 431.167 161.071C432.104 162.788 432.572 164.154 432.572 165.168C432.572 166.885 431.597 168.446 429.646 169.85C427.773 171.255 425.276 172.347 422.154 173.128C419.033 173.986 415.677 174.415 412.088 174.415C402.567 174.415 395.232 171.801 390.082 166.573C385.009 161.344 382.473 153.736 382.473 143.748C382.473 137.817 383.605 132.745 385.868 128.531C388.209 124.317 391.408 121.078 395.466 118.815C399.602 116.552 404.206 115.421 409.278 115.421C416.926 115.421 422.818 117.645 426.953 122.093C431.167 126.463 433.274 132.51 433.274 140.236C433.274 143.982 433.157 146.401 432.923 147.493H398.51C398.822 152.331 400.265 156.038 402.841 158.613C405.416 161.188 409.005 162.476 413.609 162.476ZM418.877 138.714C418.877 130.286 415.56 126.073 408.927 126.073C405.65 126.073 403.075 127.204 401.202 129.467C399.329 131.73 398.393 134.812 398.393 138.714H418.877Z" fill="#423D80"/>
<path d="M487.324 158.847C487.324 164.934 488.222 169.421 490.016 172.308C487.285 173.323 484.71 173.83 482.291 173.83C479.638 173.83 477.57 173.323 476.087 172.308C474.605 171.294 473.629 169.694 473.161 167.509C471.21 169.616 468.752 171.216 465.787 172.308C462.899 173.401 459.661 173.947 456.071 173.947C450.765 173.947 446.434 172.465 443.078 169.499C439.801 166.456 438.162 162.203 438.162 156.74C438.162 144.645 447.721 138.09 466.84 137.076C468.089 136.997 469.844 136.958 472.107 136.958V134.851C472.107 131.964 471.327 129.896 469.766 128.648C468.206 127.321 465.591 126.658 461.924 126.658C459.505 126.658 457.086 127.009 454.666 127.711C452.247 128.414 449.126 129.857 445.302 132.042C444.288 130.872 443.429 129.467 442.727 127.828C442.025 126.19 441.674 124.941 441.674 124.083C441.674 122.6 442.805 121.195 445.068 119.869C447.409 118.464 450.297 117.372 453.73 116.591C457.164 115.811 460.714 115.421 464.382 115.421C472.498 115.421 478.35 117.098 481.94 120.454C485.529 123.809 487.324 129.272 487.324 136.841V158.847ZM472.341 145.269C471.795 145.269 471.249 145.269 470.703 145.269C470.156 145.269 469.61 145.308 469.064 145.386C463.445 145.776 459.388 146.83 456.891 148.547C454.393 150.185 453.145 152.527 453.145 155.57C453.145 158.067 453.847 160.018 455.252 161.423C456.656 162.749 458.685 163.412 461.339 163.412C464.07 163.412 466.567 162.749 468.83 161.423C471.171 160.018 472.341 158.613 472.341 157.209V145.269Z" fill="#423D80"/>
<path d="M49.0298 189.604L48.9009 134.477C48.9009 134.477 57.1111 133.525 58.3203 132.874L78.5293 121.105C85.2097 117.214 93.593 122.033 93.593 129.764V212.791C93.593 216.667 89.3798 219.075 86.0398 217.108L53.9647 198.214C50.9141 196.418 49.0381 193.144 49.0298 189.604Z" fill="url(#paint0_linear)"/>
<path d="M143.666 12.1859L139.83 47.2221C139.434 50.8332 135.448 52.8365 132.314 50.9984L121.051 44.3914L66.7375 23.9494L69.9557 22.194C72.899 20.5886 72.958 16.3832 70.0609 14.6958C66.4394 12.5864 67.6617 7.07144 71.8354 6.68982L132.792 1.11622C139.101 0.539376 144.355 5.88841 143.666 12.1859Z" fill="url(#paint1_linear)"/>
<path d="M11.8254 56.0155C11.8267 56.0157 74.154 71.7479 74.154 71.7479L115.987 47.345C119.115 45.5206 122.984 45.5253 126.107 47.3573L132.27 50.9726C135.415 52.8173 139.414 50.7928 139.789 47.1663L141.474 30.8735C141.474 30.8735 141.792 26.5921 142.038 25.2626C125.872 28.576 115.865 21.5906 115.865 21.5906L113.884 20.4485C101.089 13.0704 85.3423 13.1004 72.5866 20.5465C48.4808 34.618 11.8251 56.0154 11.8254 56.0155Z" fill="url(#paint2_linear)"/>
<path d="M12.181 55.7986L7.43711 58.5758C2.83073 61.2724 0 66.2097 0 71.5474V98.1578C0 103.519 2.85593 108.475 7.49495 111.163L44.91 132.844C49.1166 135.281 54.3033 135.293 58.5207 132.874L57.9618 132.846C49.9622 132.446 43.6816 125.843 43.6816 117.834V98.2086C43.6816 92.8676 46.5158 87.9277 51.1267 85.2322L79.1643 68.8418L51.7416 54.7254C39.2399 48.29 24.3155 48.6948 12.181 55.7986Z" fill="url(#paint3_linear)"/>
<defs>
<linearGradient id="paint0_linear" x1="71" y1="127.5" x2="107.083" y2="184.763" gradientUnits="userSpaceOnUse">
<stop stop-color="#FD67A6"/>
<stop offset="1" stop-color="#FFA3BE"/>
</linearGradient>
<linearGradient id="paint1_linear" x1="118.265" y1="-1.47859" x2="108.968" y2="19.9029" gradientUnits="userSpaceOnUse">
<stop stop-color="#8CDBFF"/>
<stop offset="1" stop-color="#59C2FA"/>
</linearGradient>
<linearGradient id="paint2_linear" x1="76.0657" y1="17.2472" x2="62.8185" y2="61.3382" gradientUnits="userSpaceOnUse">
<stop stop-color="#7ED2FA"/>
<stop offset="1" stop-color="#5A63F4"/>
</linearGradient>
<linearGradient id="paint3_linear" x1="39.588" y1="44.3766" x2="15.7477" y2="115.066" gradientUnits="userSpaceOnUse">
<stop stop-color="#899CFC"/>
<stop offset="1" stop-color="#8A3CEE"/>
</linearGradient>
</defs>
</svg>
